<svg xmlns="http://www.w3.org/2000/svg" viewBox="0 0 560 500" width="560" height="500">
  <style>
    .tx { fill: #d4d4d4; stroke: #999; stroke-width: 1; }
    .heart { fill: white; }
    text { font-family: Georgia, serif; fill: #666; font-size: 24px; text-anchor: middle; }
  </style>
  <!-- Simplified Texas outline -->
  <path class="tx" d="M180,30 L260,30 L260,100 L310,100 L340,80 L370,90 L400,120 L420,160 L410,200 L390,240 L370,300 L340,340 L300,380 L280,420 L260,460 L240,440 L200,400 L160,350 L130,300 L120,260 L100,220 L110,180 L130,140 L150,100 L170,60 Z" opacity="0.6"/>
  <!-- Heart -->
  <path class="heart" d="M350,180 C350,170 360,160 370,165 C380,160 390,170 390,180 C390,195 370,210 370,210 C370,210 350,195 350,180 Z"/>
</svg>